<?xml version="1.0" encoding="utf-8"?>
<!-- Generator: Adobe Illustrator 27.7.0, SVG Export Plug-In . SVG Version: 6.00 Build 0)  -->
<svg version="1.1" id="Layer_1" xmlns="http://www.w3.org/2000/svg" xmlns:xlink="http://www.w3.org/1999/xlink" x="0px" y="0px"
	 viewBox="0 0 1920 1080" style="enable-background:new 0 0 1920 1080;" xml:space="preserve">
<style type="text/css">
	.st0{fill:none;stroke:#000000;stroke-miterlimit:10;}
</style>
<g>
	<path class="st0" d="M606.73,813.93c-4.75,0-9.5,0-14.25,0c0-124.11,0-248.22,0-372.33c63.83,0,127.66,0,191.49,0
		c-0.08,0.3-0.16,0.61-0.25,0.91c-3.46,0.53-6.42,1.96-8.25,5.02c-1.42,2.38-3.12,4.59-4.02,7.3c-0.69,2.1-1.96,4.01-3,5.99
		c-1.12,2.16-2.29,4.28-3.38,6.46c-1.72,3.44-3.35,6.92-5.07,10.35c-1.71,3.4-3.51,6.76-5.21,10.16c-1.71,3.41-3.32,6.86-5.02,10.27
		c-2.37,4.76-4.78,9.5-7.18,14.24c-3,5.92-6.03,11.83-9.02,17.76c-6.18,12.25-12.34,24.52-18.52,36.78
		c-6.38,12.67-12.79,25.33-19.13,38.02c-1.15,2.3-2.07,4.71-2.99,7.11c-0.27,0.71-0.42,1.65-0.2,2.34c0.86,2.69,1.92,5.32,2.86,7.99
		c0.36,1.02,1.16,1.41,2.1,1.68c1.51,0.43,3.02,0.83,4.51,1.33c2.22,0.75,4.41,1.59,6.63,2.36c1.03,0.36,2.07,0.67,3.11,1
		c1.6,0.51,3.2,1,4.79,1.53c1.23,0.41,2.43,0.87,3.66,1.27c2.5,0.81,5,1.59,7.5,2.41c1.26,0.41,2.49,0.93,3.75,1.34
		c2.42,0.79,4.85,1.51,7.27,2.3c2.31,0.75,4.61,1.57,6.92,2.34c4.26,1.41,8.53,2.79,12.79,4.19c2.43,0.8,4.85,1.64,7.28,2.45
		c4.33,1.43,8.67,2.83,12.99,4.29c2.31,0.78,4.58,1.69,6.89,2.45c2.28,0.74,4.62,1.31,6.9,2.06c2.35,0.77,4.65,1.69,6.99,2.49
		c2.71,0.93,5.43,1.79,8.15,2.68c2.79,0.92,5.58,1.85,8.38,2.75c1.26,0.41,2.55,0.73,3.81,1.13c1.34,0.43,2.67,0.9,3.99,1.37
		c1.29,0.45,2.56,0.95,3.86,1.38c1.56,0.52,3.13,0.98,4.69,1.49c1.27,0.42,2.51,0.91,3.77,1.32c2.45,0.8,4.92,1.56,7.38,2.36
		c1.3,0.43,2.56,0.96,3.86,1.38c2.38,0.77,4.79,1.48,7.17,2.25c2.39,0.78,4.76,1.63,7.15,2.41c4.15,1.37,8.31,2.69,12.45,4.07
		c3.59,1.19,7.13,2.55,10.76,3.6c1.61,0.46,2.49,1.44,3.13,2.74c2.33,4.69,4.56,9.43,6.89,14.13c3.73,7.52,7.52,15.02,11.26,22.54
		c2.09,4.19,4.1,8.42,6.19,12.62c2.79,5.6,5.63,11.18,8.42,16.77c4.02,8.07,8.02,16.14,12.01,24.22c0.14,0.28,0.11,0.65,0.18,1.11
		c-0.82-0.27-1.49-0.45-2.14-0.7c-3.14-1.19-6.26-2.43-9.41-3.58c-2.96-1.08-5.95-2.07-8.92-3.13c-2.07-0.74-4.11-1.56-6.17-2.32
		c-1.2-0.45-2.42-0.86-3.63-1.28c-1.89-0.65-3.79-1.27-5.67-1.95c-1.6-0.58-3.16-1.26-4.76-1.86c-1.03-0.38-2.09-0.66-3.11-1.05
		c-1.34-0.52-2.62-1.15-3.97-1.65c-3.27-1.2-6.58-2.33-9.85-3.54c-1.75-0.64-3.45-1.42-5.21-2.05c-1.32-0.47-2.71-0.76-4.03-1.23
		c-3.39-1.21-6.76-2.48-10.14-3.7c-0.88-0.32-1.8-0.53-2.68-0.86c-1.56-0.59-3.08-1.26-4.64-1.84c-1.94-0.73-3.9-1.42-5.86-2.12
		c-1.51-0.55-3.03-1.1-4.54-1.64c-1.96-0.71-3.94-1.41-5.89-2.13c-2.98-1.1-5.95-2.25-8.94-3.33c-2.96-1.07-5.95-2.06-8.9-3.14
		c-2.98-1.08-5.92-2.26-8.89-3.34c-2.99-1.09-6.02-2.08-9.02-3.15c-2.53-0.9-5.05-1.85-7.57-2.77c-3.47-1.26-6.96-2.5-10.43-3.77
		c-2.06-0.75-4.11-1.55-6.17-2.33c-1.05-0.4-2.09-0.83-3.16-1.2c-2.93-1.04-5.88-2.05-8.81-3.09c-2.49-0.89-4.96-1.8-7.45-2.7
		c-2.58-0.93-5.16-1.86-7.74-2.8c-3.48-1.27-6.95-2.55-10.43-3.81c-2.5-0.91-5-1.8-7.49-2.71c-3.51-1.28-7.03-2.55-10.53-3.85
		c-2.79-1.03-5.57-2.11-8.37-3.15c-1.44-0.53-2.9-1-4.33-1.53c-2.18-0.81-4.35-1.65-6.53-2.46c-1.72-0.65-3.44-1.29-5.17-1.92
		c-1.54-0.56-3.11-1.04-4.65-1.62c-1.97-0.74-3.89-1.61-5.88-2.29c-2.83-0.98-5.79-1.65-8.54-2.81c-2.11-0.89-4.22-1.55-6.47-1.94
		c-3.81-0.65-9.28,1.64-11.21,4.93c-1.4,2.4-2.7,4.87-3.94,7.36c-1.4,2.8-2.65,5.68-4.04,8.48c-2.3,4.66-4.68,9.28-7,13.93
		c-2.34,4.69-4.65,9.39-6.99,14.07c-1.57,3.15-3.2,6.26-4.75,9.42c-1.08,2.19-2.03,4.45-3.1,6.64c-1.67,3.4-3.41,6.77-5.11,10.16
		c-1.69,3.39-3.37,6.79-5.05,10.19c-2.64,5.36-5.28,10.73-7.92,16.09c-1.61,3.28-3.24,6.56-4.84,9.84
		c-0.58,1.19-1.37,2.37-1.59,3.63c-0.46,2.59-0.87,5.26,0.65,7.71c1.4,2.24,2.83,4.46,4.25,6.69
		C606.56,813.31,606.65,813.62,606.73,813.93z"/>
	<path class="st0" d="M895.87,441.6c62.33,0,124.65,0,186.98,0c0,124.11,0,248.22,0,372.33c-6.02,0-12.04,0-18.06,0
		c0.17-0.3,0.35-0.61,0.52-0.91c2.49-0.73,4.41-2.25,5.9-4.29c1.17-1.61,2.14-3.36,3.29-4.98c0.65-0.92,0.7-1.79,0.22-2.74
		c-1.69-3.31-3.44-6.59-5.08-9.92c-3.87-7.85-7.66-15.74-11.53-23.59c-3.17-6.42-6.44-12.79-9.61-19.21
		c-2.75-5.57-5.37-11.2-8.13-16.76c-3.95-7.95-8.01-15.86-11.96-23.81c-3.65-7.34-7.2-14.73-10.83-22.08
		c-3.28-6.63-6.64-13.21-9.91-19.84c-2.75-5.57-5.38-11.21-8.14-16.77c-3.95-7.95-8.01-15.85-11.97-23.81
		c-3.69-7.41-7.26-14.88-10.94-22.3c-3.37-6.8-6.86-13.54-10.22-20.34c-2.61-5.29-5.05-10.67-7.67-15.96
		c-4.13-8.35-8.39-16.63-12.53-24.98c-2.87-5.78-5.59-11.63-8.47-17.4c-4.08-8.19-8.28-16.33-12.36-24.53
		c-3.53-7.1-6.93-14.27-10.44-21.38c-3.26-6.6-6.57-13.16-9.88-19.74c-1.77-3.53-3.47-7.11-5.39-10.56
		c-1.05-1.89-2.51-3.56-3.78-5.34C895.88,442.34,895.87,441.97,895.87,441.6z"/>
	<path class="st0" d="M954.55,813.93c-78.24,0-156.49,0-234.73,0c0.09-0.23,0.17-0.46,0.26-0.69c3.52-0.66,6.08-2.77,7.65-5.76
		c3.57-6.78,6.91-13.68,10.32-20.55c2.83-5.7,5.63-11.41,8.43-17.12c2.15-4.39,4.27-8.79,6.43-13.17c2.19-4.45,4.42-8.88,6.61-13.34
		c0.24-0.5,0.42-0.74,1.05-0.5c3.36,1.24,6.75,2.41,10.12,3.64c2.81,1.03,5.59,2.13,8.4,3.16c3.4,1.24,6.82,2.42,10.23,3.65
		c2.63,0.95,5.23,1.98,7.85,2.93c3.36,1.22,6.76,2.37,10.11,3.61c2.73,1.01,5.39,2.17,8.13,3.16c2.81,1.01,5.68,1.85,8.49,2.84
		c3.81,1.35,7.58,2.79,11.38,4.18c2.17,0.79,4.37,1.52,6.54,2.32c3.94,1.44,7.87,2.91,11.81,4.38c1.81,0.67,3.59,1.39,5.41,2.05
		c3.92,1.41,7.85,2.78,11.77,4.2c2.11,0.76,4.19,1.61,6.3,2.37c3.26,1.18,6.54,2.3,9.8,3.48c2.74,0.99,5.45,2.07,8.18,3.06
		c3.33,1.21,6.68,2.36,10.01,3.56c2.7,0.98,5.37,2.04,8.07,3.02c3.03,1.1,6.1,2.11,9.12,3.23c3.02,1.12,5.99,2.37,9.01,3.5
		c2.1,0.78,4.24,1.43,6.35,2.19c3.85,1.39,7.67,2.86,11.52,4.22c1.66,0.59,3.38,1,5.08,1.49
		C954.35,813.33,954.45,813.63,954.55,813.93z"/>
	<path class="st0" d="M720.08,813.24c-0.09,0.23-0.17,0.46-0.26,0.69c-37.7,0-75.39,0-113.09,0c-0.08-0.31-0.17-0.62-0.25-0.93
		c37.41,0,74.81,0,112.22,0.01C719.16,813,719.62,813.16,720.08,813.24z"/>
	<path class="st0" d="M895.87,441.6c0.01,0.37,0.01,0.74,0.02,1.11c-0.51-0.06-1.01-0.17-1.52-0.17
		c-36.01-0.01-72.02-0.01-108.03-0.01c-0.87,0-1.74-0.02-2.61-0.03c0.08-0.3,0.16-0.61,0.25-0.91
		C821.27,441.6,858.57,441.6,895.87,441.6z"/>
	<path class="st0" d="M954.55,813.93c-0.1-0.3-0.2-0.59-0.3-0.89c1.21-0.02,2.41-0.04,3.62-0.04c34.94,0,69.89,0,104.83,0
		c0.87,0,1.74,0.02,2.61,0.03c-0.17,0.3-0.35,0.61-0.52,0.91C1028.04,813.93,991.29,813.93,954.55,813.93z"/>
	<path class="st0" d="M1065.31,813.02c-0.87-0.01-1.74-0.03-2.61-0.03c-34.94,0-69.89,0-104.83,0c-1.21,0-2.41,0.03-3.62,0.04
		c-1.7-0.49-3.42-0.9-5.08-1.49c-3.86-1.36-7.68-2.83-11.52-4.22c-2.1-0.76-4.25-1.4-6.35-2.19c-3.02-1.13-5.99-2.38-9.01-3.5
		c-3.02-1.12-6.09-2.13-9.12-3.23c-2.7-0.98-5.37-2.04-8.07-3.02c-3.33-1.21-6.68-2.35-10.01-3.56c-2.74-1-5.45-2.07-8.18-3.06
		c-3.26-1.18-6.54-2.3-9.8-3.48c-2.11-0.76-4.19-1.61-6.3-2.37c-3.92-1.42-7.85-2.78-11.77-4.2c-1.81-0.65-3.6-1.37-5.41-2.05
		c-3.93-1.47-7.87-2.93-11.81-4.38c-2.17-0.8-4.37-1.53-6.54-2.32c-3.8-1.38-7.57-2.82-11.38-4.18c-2.81-1-5.68-1.83-8.49-2.84
		c-2.73-0.99-5.4-2.15-8.13-3.16c-3.36-1.24-6.75-2.39-10.11-3.61c-2.63-0.95-5.23-1.98-7.85-2.93c-3.4-1.24-6.83-2.41-10.23-3.65
		c-2.81-1.03-5.59-2.13-8.4-3.16c-3.37-1.23-6.75-2.4-10.12-3.64c-0.63-0.23-0.81,0-1.05,0.5c-2.19,4.45-4.42,8.89-6.61,13.34
		c-2.16,4.38-4.28,8.79-6.43,13.17c-2.8,5.71-5.6,11.42-8.43,17.12c-3.41,6.87-6.75,13.77-10.32,20.55
		c-1.57,2.99-4.12,5.1-7.65,5.76c-0.46-0.08-0.92-0.24-1.38-0.24c-37.41-0.01-74.81-0.01-112.22-0.01
		c-1.42-2.23-2.85-4.45-4.25-6.69c-1.52-2.45-1.11-5.12-0.65-7.71c0.22-1.26,1.01-2.44,1.59-3.63c1.6-3.29,3.23-6.56,4.84-9.84
		c2.64-5.36,5.28-10.73,7.92-16.09c1.68-3.4,3.36-6.8,5.05-10.19c1.69-3.39,3.43-6.76,5.11-10.16c1.08-2.19,2.03-4.45,3.1-6.64
		c1.55-3.16,3.18-6.27,4.75-9.42c2.34-4.69,4.65-9.39,6.99-14.07c2.32-4.65,4.7-9.27,7-13.93c1.39-2.81,2.63-5.68,4.04-8.48
		c1.24-2.49,2.54-4.95,3.94-7.36c1.92-3.29,7.4-5.58,11.21-4.93c2.25,0.38,4.36,1.04,6.47,1.94c2.75,1.16,5.7,1.83,8.54,2.81
		c1.99,0.68,3.91,1.55,5.88,2.29c1.54,0.58,3.11,1.07,4.65,1.62c1.73,0.62,3.45,1.27,5.17,1.92c2.18,0.82,4.34,1.66,6.53,2.46
		c1.44,0.53,2.9,0.99,4.33,1.53c2.79,1.04,5.57,2.11,8.37,3.15c3.5,1.3,7.02,2.57,10.53,3.85c2.5,0.91,5,1.8,7.49,2.71
		c3.48,1.27,6.95,2.55,10.43,3.81c2.58,0.94,5.16,1.86,7.74,2.8c2.48,0.9,4.96,1.82,7.45,2.7c2.93,1.04,5.87,2.05,8.81,3.09
		c1.06,0.38,2.1,0.81,3.16,1.2c2.05,0.78,4.1,1.57,6.17,2.33c3.47,1.27,6.95,2.51,10.43,3.77c2.53,0.92,5.04,1.87,7.57,2.77
		c3,1.07,6.03,2.07,9.02,3.15c2.98,1.08,5.92,2.26,8.89,3.34c2.96,1.08,5.94,2.07,8.9,3.14c2.99,1.08,5.96,2.23,8.94,3.33
		c1.96,0.72,3.93,1.42,5.89,2.13c1.51,0.55,3.03,1.1,4.54,1.64c1.95,0.71,3.92,1.39,5.86,2.12c1.56,0.59,3.08,1.26,4.64,1.84
		c0.88,0.33,1.8,0.54,2.68,0.86c3.38,1.23,6.75,2.5,10.14,3.7c1.32,0.47,2.71,0.75,4.03,1.23c1.75,0.63,3.45,1.41,5.21,2.05
		c3.28,1.2,6.58,2.33,9.85,3.54c1.34,0.49,2.63,1.13,3.97,1.65c1.02,0.39,2.09,0.67,3.11,1.05c1.6,0.6,3.16,1.27,4.76,1.86
		c1.88,0.68,3.78,1.3,5.67,1.95c1.21,0.42,2.43,0.83,3.63,1.28c2.06,0.76,4.1,1.58,6.17,2.32c2.96,1.06,5.96,2.05,8.92,3.13
		c3.15,1.15,6.27,2.39,9.41,3.58c0.65,0.24,1.31,0.43,2.14,0.7c-0.07-0.46-0.04-0.83-0.18-1.11c-3.99-8.08-7.99-16.16-12.01-24.22
		c-2.79-5.6-5.63-11.17-8.42-16.77c-2.09-4.19-4.1-8.42-6.19-12.62c-3.74-7.52-7.53-15.02-11.26-22.54
		c-2.33-4.69-4.56-9.43-6.89-14.13c-0.64-1.3-1.53-2.27-3.13-2.74c-3.63-1.05-7.17-2.41-10.76-3.6c-4.14-1.38-8.31-2.7-12.45-4.07
		c-2.39-0.79-4.76-1.64-7.15-2.41c-2.38-0.78-4.79-1.48-7.17-2.25c-1.3-0.42-2.56-0.96-3.86-1.38c-2.45-0.81-4.92-1.56-7.38-2.36
		c-1.27-0.41-2.51-0.9-3.77-1.32c-1.56-0.52-3.14-0.97-4.69-1.49c-1.3-0.43-2.57-0.93-3.86-1.38c-1.33-0.47-2.65-0.94-3.99-1.37
		c-1.26-0.4-2.55-0.73-3.81-1.13c-2.8-0.9-5.58-1.84-8.38-2.75c-2.72-0.89-5.45-1.76-8.15-2.68c-2.34-0.8-4.64-1.72-6.99-2.49
		c-2.28-0.75-4.62-1.32-6.9-2.06c-2.32-0.76-4.58-1.67-6.89-2.45c-4.32-1.45-8.66-2.85-12.99-4.29c-2.43-0.8-4.85-1.65-7.28-2.45
		c-4.26-1.41-8.53-2.78-12.79-4.19c-2.31-0.76-4.6-1.58-6.92-2.34c-2.41-0.79-4.85-1.51-7.27-2.3c-1.26-0.41-2.49-0.93-3.75-1.34
		c-2.49-0.82-5-1.59-7.5-2.41c-1.23-0.4-2.44-0.87-3.66-1.27c-1.59-0.53-3.19-1.02-4.79-1.53c-1.04-0.33-2.09-0.64-3.11-1
		c-2.21-0.78-4.4-1.61-6.63-2.36c-1.48-0.5-3-0.9-4.51-1.33c-0.94-0.27-1.74-0.66-2.1-1.68c-0.94-2.67-2-5.3-2.86-7.99
		c-0.22-0.7-0.08-1.63,0.2-2.34c0.92-2.4,1.84-4.81,2.99-7.11c6.34-12.69,12.75-25.35,19.13-38.02
		c6.17-12.26,12.34-24.52,18.52-36.78c2.99-5.93,6.02-11.84,9.02-17.76c2.4-4.74,4.81-9.49,7.18-14.24
		c1.7-3.41,3.32-6.86,5.02-10.27c1.71-3.4,3.51-6.76,5.21-10.16c1.72-3.44,3.36-6.91,5.07-10.35c1.08-2.17,2.26-4.3,3.38-6.46
		c1.03-1.99,2.3-3.9,3-5.99c0.9-2.72,2.6-4.92,4.02-7.3c1.83-3.06,4.79-4.49,8.25-5.02c0.87,0.01,1.74,0.03,2.61,0.03
		c36.01,0,72.02,0,108.03,0.01c0.51,0,1.01,0.11,1.52,0.17c1.27,1.77,2.73,3.45,3.78,5.34c1.92,3.45,3.62,7.03,5.39,10.56
		c3.3,6.58,6.62,13.14,9.88,19.74c3.51,7.11,6.91,14.28,10.44,21.38c4.08,8.2,8.28,16.33,12.36,24.53c2.88,5.77,5.6,11.62,8.47,17.4
		c4.14,8.34,8.4,16.63,12.53,24.98c2.62,5.29,5.05,10.67,7.67,15.96c3.36,6.8,6.85,13.54,10.22,20.34
		c3.68,7.42,7.25,14.89,10.94,22.3c3.95,7.95,8.01,15.85,11.97,23.81c2.77,5.57,5.39,11.2,8.14,16.77
		c3.27,6.63,6.64,13.21,9.91,19.84c3.63,7.35,7.18,14.74,10.83,22.08c3.95,7.95,8.01,15.86,11.96,23.81
		c2.76,5.56,5.38,11.19,8.13,16.76c3.17,6.42,6.44,12.79,9.61,19.21c3.87,7.85,7.66,15.74,11.53,23.59
		c1.64,3.33,3.39,6.61,5.08,9.92c0.48,0.95,0.43,1.82-0.22,2.74c-1.15,1.63-2.12,3.38-3.29,4.98
		C1069.72,810.77,1067.8,812.29,1065.31,813.02z M633.12,788.84c0,0-0.01,0.02-0.01,0.02c-0.14,0.3-0.29,0.6-0.43,0.91
		c0.29,0.04,0.59,0.07,0.88,0.11c0.91-0.03,1.82-0.07,2.73-0.07c21.46,0,42.92,0,64.37,0c2.61,0,5.23,0.04,7.84-0.03
		c0.47-0.01,1.14-0.38,1.36-0.78c1.26-2.26,2.45-4.56,3.6-6.88c2.3-4.62,4.54-9.27,6.83-13.89c2.19-4.4,4.44-8.78,6.62-13.19
		c1.69-3.42,3.27-6.89,4.95-10.31c1.6-3.25,3.26-6.48,4.91-9.71c0.29-0.56,0.15-0.88-0.41-1.08c-1.03-0.38-2.06-0.77-3.1-1.14
		c-2.93-1.04-5.87-2.05-8.79-3.11c-3.32-1.2-6.63-2.45-9.95-3.66c-2.55-0.92-5.13-1.78-7.67-2.72c-3.12-1.15-6.22-2.37-9.34-3.52
		c-4.03-1.47-8.08-2.89-12.11-4.34c-3.93-1.41-7.84-2.87-11.77-4.26c-1.53-0.54-2.04-0.22-2.7,1.15c-2.23,4.64-4.43,9.3-6.73,13.91
		c-3.49,7-7.08,13.95-10.56,20.95c-3.34,6.72-6.6,13.47-9.9,20.21c-2.18,4.46-4.35,8.92-6.56,13.37c-1.31,2.62-2.69,5.21-4.04,7.81
		C633.11,788.68,633.12,788.76,633.12,788.84z M807.01,466.2c-0.68,0-1.37,0-2.12,0c10.86,21.95,21.61,43.69,32.45,65.6
		c0.26-0.4,0.38-0.54,0.46-0.71c1.71-3.51,3.39-7.04,5.13-10.54c2.51-5.04,5.1-10.04,7.6-15.08c1.97-3.99,3.83-8.04,5.79-12.04
		c1.43-2.93,2.95-5.81,4.41-8.73c2.7-5.39,5.38-10.78,8.06-16.17c0.34-0.68,0.62-1.39,0.93-2.09c-0.07-0.06-0.14-0.12-0.21-0.18
		c-0.47-0.02-0.95-0.04-1.42-0.06c-1.13-0.06-2.25-0.11-3.38-0.17c-0.12,0-0.25,0-0.37,0.01c-0.18,0.05-0.36,0.09-0.54,0.14
		c-0.15,0-0.29,0-0.44,0c-0.17,0-0.34,0-0.51,0c-0.15,0-0.29,0-0.44,0c-0.17,0-0.34,0-0.51,0c-0.15,0-0.3,0-0.45,0
		c-0.42-0.07-0.83-0.19-1.25-0.19c-12.95-0.01-25.91-0.01-38.86,0c-0.42,0-0.84,0.12-1.25,0.18c-0.15,0-0.3,0-0.45,0
		c-0.48,0-0.97,0-1.45,0c-0.15,0-0.3,0-0.45,0c-3.54-0.02-7.08-0.03-10.62-0.05C807.06,466.13,807.04,466.18,807.01,466.2z
		 M889.48,481.36c-0.23,0.28-0.38,0.41-0.46,0.57c-3.32,6.69-6.66,13.37-9.96,20.07c-2.78,5.65-5.51,11.32-8.27,16.98
		c-1.98,4.07-3.95,8.15-5.98,12.2c-1.96,3.92-4.01,7.79-5.97,11.71c-2.39,4.79-4.75,9.6-7.08,14.42c-0.43,0.9-0.81,1.79-0.26,2.89
		c3.53,7.1,6.99,14.23,10.5,21.33c2.56,5.19,5.18,10.35,7.74,15.54c5.14,10.41,10.24,20.84,15.38,31.24
		c2.69,5.43,5.45,10.83,8.14,16.26c3.61,7.28,7.17,14.59,10.81,21.86c0.3,0.6,0.97,1.18,1.6,1.42c1.86,0.71,3.79,1.25,5.69,1.85
		c2.5,0.8,5.01,1.57,7.5,2.4c2.22,0.74,4.41,1.57,6.63,2.3c3.28,1.07,6.59,2.04,9.87,3.14c3.26,1.09,6.48,2.27,9.73,3.41
		c0.18,0.06,0.4,0.02,0.59,0.08c1.39,0.41,2.8,0.79,4.17,1.27c1.45,0.52,2.85,1.17,4.29,1.71c0.97,0.37,1.97,0.65,2.96,0.96
		c1.51,0.47,3.03,0.89,4.52,1.39c1.27,0.43,2.5,1.01,3.78,1.4c1.35,0.41,2.77,0.6,4.11,1.04c1.35,0.44,2.62,1.11,3.95,1.61
		c1.16,0.43,2.36,0.76,3.55,1.11c1.33,0.39,2.68,0.71,3.99,1.16c1.39,0.48,2.72,1.1,4.1,1.59c1.09,0.39,2.21,0.68,3.33,1.01
		c1.33,0.4,2.68,0.75,4,1.18c1.28,0.42,2.53,0.92,3.79,1.38c0.09-0.08,0.19-0.16,0.28-0.24
		C960.84,625.57,925.19,553.53,889.48,481.36z M785.09,481.54c-0.61,1.2-1.05,2.07-1.5,2.96c-3.59,7.17-7.18,14.33-10.77,21.5
		c-2.63,5.26-5.23,10.53-7.88,15.78c-2.32,4.6-4.72,9.17-7.03,13.77c-4.83,9.61-9.61,19.25-14.45,28.85
		c-6.88,13.63-13.79,27.25-20.7,40.87c-0.47,0.93-0.41,1.53,0.67,1.88c1.86,0.61,3.72,1.23,5.57,1.87c3.28,1.14,6.54,2.3,9.82,3.44
		c0.22,0.08,0.47,0.04,0.7,0.1c0.48,0.13,0.96,0.26,1.42,0.44c1.35,0.53,2.68,1.15,4.05,1.61c1.38,0.47,2.83,0.73,4.21,1.19
		c1.38,0.46,2.71,1.06,4.07,1.6c0.11,0.04,0.24,0.02,0.35,0.05c1.26,0.3,2.55,0.51,3.77,0.92c1.38,0.47,2.69,1.16,4.05,1.67
		c1.15,0.44,2.34,0.79,3.53,1.14c1.33,0.4,2.69,0.71,4.01,1.14c1.32,0.43,2.59,1.01,3.92,1.44c3.28,1.07,6.59,2.07,9.88,3.12
		c1.87,0.6,3.73,1.25,5.58,1.9c0.76,0.27,1.11,0.09,1.41-0.69c0.58-1.48,1.27-2.92,1.98-4.34c1.11-2.21,2.3-4.37,3.4-6.58
		c2.03-4.1,4-8.22,6.04-12.32c1.81-3.64,3.7-7.25,5.51-10.89c1.14-2.3,2.17-4.66,3.31-6.96c1.39-2.79,2.86-5.55,4.25-8.34
		c1.11-2.22,2.14-4.48,3.24-6.71c1.92-3.9,3.9-7.76,5.75-11.68c0.31-0.66,0.41-1.66,0.13-2.29c-1.18-2.63-2.54-5.18-3.83-7.76
		c-3.38-6.79-6.75-13.58-10.13-20.37c-2.73-5.49-5.46-10.98-8.18-16.47c-2.97-5.98-5.93-11.96-8.9-17.94
		c-1.93-3.89-3.83-7.79-5.78-11.67C786.22,483.09,785.72,482.49,785.09,481.54z M919.55,697.77c1.67,3.29,3.28,6.39,4.84,9.52
		c2.61,5.25,5.2,10.52,7.79,15.79c4.16,8.45,8.31,16.9,12.48,25.34c2.61,5.29,5.26,10.57,7.9,15.86c3.06,6.13,6.11,12.25,9.17,18.38
		c0.99,1.99,2.13,3.92,2.94,5.98c0.36,0.92,0.72,1.19,1.64,1.19c24.78-0.02,49.57-0.03,74.35-0.03c0.39,0,0.77,0,1.35,0
		c-0.27-0.71-0.43-1.26-0.69-1.77c-0.83-1.68-1.71-3.34-2.54-5.01c-3.2-6.4-6.4-12.8-9.57-19.22c-2.29-4.65-4.49-9.35-6.79-14
		c-3.29-6.66-6.64-13.29-9.96-19.94c-0.68-1.36-1.65-2.27-3.24-2.64c-2.02-0.47-4-1.14-5.97-1.8c-1.7-0.57-3.36-1.3-5.06-1.87
		c-4.25-1.43-8.53-2.8-12.79-4.22c-2.36-0.78-4.69-1.63-7.05-2.39c-4.11-1.33-8.24-2.6-12.35-3.94c-2.38-0.78-4.72-1.68-7.09-2.5
		c-1.11-0.39-2.23-0.73-3.35-1.09c-2.27-0.73-4.56-1.42-6.82-2.18c-2.34-0.79-4.65-1.65-6.97-2.46c-1.03-0.36-2.07-0.68-3.12-1
		c-1.3-0.4-2.62-0.74-3.91-1.17c-1.45-0.49-2.86-1.07-4.3-1.57c-1.03-0.36-2.09-0.67-3.13-1.01c-1.45-0.47-2.9-0.98-4.36-1.4
		C921.85,698.26,920.72,698.04,919.55,697.77z M812.5,636.66c0.31,0.13,0.52,0.23,0.73,0.3c2.22,0.76,4.45,1.51,6.66,2.28
		c2.22,0.77,4.42,1.58,6.65,2.33c2.75,0.93,5.51,1.83,8.27,2.73c1.37,0.45,2.76,0.87,4.14,1.29c1.14,0.35,2.32,0.61,3.43,1.03
		c1.4,0.53,2.76,1.17,4.14,1.76c0.1,0.04,0.24-0.01,0.35,0.03c1.51,0.46,3.02,0.89,4.52,1.4c1.27,0.43,2.49,0.96,3.76,1.4
		c1.66,0.57,3.35,1.08,5.02,1.63c1.1,0.36,2.19,0.75,3.28,1.12c0.91,0.31,1.83,0.6,2.74,0.9c0.95,0.31,1.9,0.65,2.86,0.93
		c0.89,0.26,1.81,0.47,3.1,0.8c-11.63-23.5-23.14-46.77-34.78-70.29C829.02,603.2,820.79,619.88,812.5,636.66z"/>
	<path class="st0" d="M889.48,481.36c35.71,72.17,71.36,144.21,107.01,216.24c-0.09,0.08-0.19,0.16-0.28,0.24
		c-1.26-0.46-2.52-0.96-3.79-1.38c-1.32-0.43-2.66-0.79-4-1.18c-1.11-0.33-2.24-0.63-3.33-1.01c-1.38-0.49-2.72-1.12-4.1-1.59
		c-1.31-0.45-2.66-0.77-3.99-1.16c-1.19-0.35-2.39-0.68-3.55-1.11c-1.33-0.49-2.6-1.16-3.95-1.61c-1.34-0.44-2.76-0.63-4.11-1.04
		c-1.28-0.39-2.51-0.97-3.78-1.4c-1.49-0.5-3.02-0.92-4.52-1.39c-0.99-0.31-1.99-0.6-2.96-0.96c-1.44-0.54-2.84-1.2-4.29-1.71
		c-1.37-0.49-2.78-0.86-4.17-1.27c-0.19-0.06-0.4-0.01-0.59-0.08c-3.24-1.13-6.47-2.32-9.73-3.41c-3.27-1.09-6.59-2.06-9.87-3.14
		c-2.22-0.73-4.41-1.56-6.63-2.3c-2.49-0.83-5-1.61-7.5-2.4c-1.9-0.61-3.83-1.14-5.69-1.85c-0.63-0.24-1.3-0.82-1.6-1.42
		c-3.64-7.27-7.2-14.58-10.81-21.86c-2.69-5.43-5.45-10.83-8.14-16.26c-5.14-10.41-10.24-20.83-15.38-31.24
		c-2.56-5.19-5.18-10.35-7.74-15.54c-3.51-7.11-6.97-14.24-10.5-21.33c-0.54-1.09-0.17-1.99,0.26-2.89
		c2.34-4.82,4.69-9.63,7.08-14.42c1.96-3.92,4.01-7.79,5.97-11.71c2.03-4.05,3.99-8.13,5.98-12.2c2.76-5.66,5.49-11.33,8.27-16.98
		c3.3-6.7,6.63-13.38,9.96-20.07C889.1,481.77,889.25,481.64,889.48,481.36z"/>
	<path class="st0" d="M785.09,481.54c0.64,0.95,1.13,1.55,1.47,2.22c1.95,3.88,3.85,7.78,5.78,11.67c2.96,5.98,5.93,11.96,8.9,17.94
		c2.73,5.49,5.45,10.98,8.18,16.47c3.37,6.79,6.75,13.58,10.13,20.37c1.29,2.58,2.65,5.13,3.83,7.76c0.28,0.63,0.18,1.64-0.13,2.29
		c-1.86,3.92-3.84,7.79-5.75,11.68c-1.1,2.23-2.13,4.49-3.24,6.71c-1.39,2.79-2.86,5.54-4.25,8.34c-1.14,2.3-2.17,4.66-3.31,6.96
		c-1.81,3.64-3.7,7.25-5.51,10.89c-2.04,4.1-4,8.22-6.04,12.32c-1.1,2.21-2.29,4.38-3.4,6.58c-0.71,1.42-1.4,2.86-1.98,4.34
		c-0.3,0.77-0.65,0.96-1.41,0.69c-1.85-0.66-3.71-1.3-5.58-1.9c-3.29-1.06-6.59-2.06-9.88-3.12c-1.32-0.43-2.6-1.01-3.92-1.44
		c-1.32-0.43-2.68-0.74-4.01-1.14c-1.19-0.35-2.38-0.7-3.53-1.14c-1.37-0.52-2.67-1.21-4.05-1.67c-1.22-0.41-2.51-0.62-3.77-0.92
		c-0.11-0.03-0.24-0.01-0.35-0.05c-1.36-0.53-2.69-1.14-4.07-1.6c-1.38-0.46-2.83-0.72-4.21-1.19c-1.38-0.46-2.7-1.08-4.05-1.61
		c-0.46-0.18-0.94-0.31-1.42-0.44c-0.23-0.06-0.48-0.02-0.7-0.1c-3.27-1.14-6.54-2.3-9.82-3.44c-1.85-0.64-3.71-1.26-5.57-1.87
		c-1.08-0.35-1.14-0.96-0.67-1.88c6.91-13.62,13.83-27.23,20.7-40.87c4.84-9.6,9.62-19.24,14.45-28.85
		c2.31-4.6,4.71-9.17,7.03-13.77c2.65-5.25,5.25-10.52,7.88-15.78c3.59-7.17,7.18-14.33,10.77-21.5
		C784.03,483.62,784.48,482.74,785.09,481.54z"/>
	<path class="st0" d="M919.55,697.77c1.17,0.28,2.3,0.5,3.4,0.82c1.47,0.43,2.91,0.93,4.36,1.4c1.04,0.34,2.1,0.64,3.13,1.01
		c1.44,0.51,2.86,1.09,4.3,1.57c1.29,0.43,2.61,0.78,3.91,1.17c1.04,0.32,2.09,0.64,3.12,1c2.33,0.81,4.64,1.67,6.97,2.46
		c2.26,0.76,4.55,1.46,6.82,2.18c1.12,0.36,2.24,0.71,3.35,1.09c2.37,0.83,4.71,1.72,7.09,2.5c4.11,1.35,8.24,2.61,12.35,3.94
		c2.36,0.77,4.69,1.61,7.05,2.39c4.26,1.41,8.53,2.79,12.79,4.22c1.7,0.57,3.36,1.3,5.06,1.87c1.97,0.66,3.95,1.33,5.97,1.8
		c1.59,0.37,2.56,1.27,3.24,2.64c3.32,6.65,6.67,13.28,9.96,19.94c2.3,4.65,4.5,9.34,6.79,14c3.16,6.42,6.37,12.82,9.57,19.22
		c0.84,1.68,1.71,3.33,2.54,5.01c0.25,0.51,0.41,1.06,0.69,1.77c-0.58,0-0.96,0-1.35,0c-24.78,0.01-49.57,0.01-74.35,0.03
		c-0.93,0-1.28-0.26-1.64-1.19c-0.81-2.06-1.95-3.99-2.94-5.98c-3.06-6.13-6.11-12.25-9.17-18.38c-2.63-5.28-5.28-10.56-7.9-15.86
		c-4.17-8.44-8.32-16.9-12.48-25.34c-2.59-5.26-5.18-10.53-7.79-15.79C922.83,704.16,921.22,701.06,919.55,697.77z"/>
	<path class="st0" d="M633.11,788.6c1.35-2.6,2.73-5.19,4.04-7.81c2.21-4.44,4.38-8.91,6.56-13.37c3.3-6.74,6.56-13.49,9.9-20.21
		c3.48-7,7.07-13.95,10.56-20.95c2.3-4.61,4.5-9.26,6.73-13.91c0.66-1.38,1.18-1.69,2.7-1.15c3.94,1.38,7.85,2.84,11.77,4.26
		c4.03,1.45,8.08,2.87,12.11,4.34c3.13,1.14,6.22,2.37,9.34,3.52c2.55,0.94,5.12,1.79,7.67,2.72c3.32,1.2,6.63,2.46,9.95,3.66
		c2.92,1.06,5.86,2.07,8.79,3.11c1.04,0.37,2.07,0.76,3.1,1.14c0.57,0.21,0.7,0.52,0.41,1.08c-1.65,3.23-3.31,6.46-4.91,9.71
		c-1.68,3.42-3.26,6.89-4.95,10.31c-2.18,4.41-4.43,8.78-6.62,13.19c-2.3,4.62-4.53,9.27-6.83,13.89c-1.15,2.32-2.34,4.62-3.6,6.88
		c-0.22,0.4-0.89,0.76-1.36,0.78c-2.61,0.07-5.22,0.03-7.84,0.03c-21.46,0-42.92,0-64.37,0c-0.91,0-1.82,0.05-2.73,0.07
		c-0.15-0.34-0.3-0.68-0.45-1.01c0,0,0.01-0.02,0.01-0.02c0.03-0.02,0.08-0.05,0.08-0.07C633.18,788.71,633.14,788.66,633.11,788.6z
		"/>
	<path class="st0" d="M864.32,466.04c0.12,0,0.25,0,0.37-0.01c0.73,0.08,1.46,0.15,2.19,0.23c0.08,0,0.16,0,0.24-0.01
		c0.32-0.02,0.64-0.03,0.96-0.05c0.47,0.02,0.95,0.04,1.42,0.06c0.07,0.06,0.14,0.12,0.21,0.18c-0.31,0.7-0.59,1.41-0.93,2.09
		c-2.68,5.39-5.36,10.79-8.06,16.17c-1.46,2.91-2.98,5.8-4.41,8.73c-1.96,4-3.81,8.05-5.79,12.04c-2.49,5.05-5.09,10.04-7.6,15.08
		c-1.74,3.5-3.42,7.03-5.13,10.54c-0.08,0.17-0.2,0.32-0.46,0.71c-10.84-21.91-21.6-43.65-32.45-65.6c0.76,0,1.44,0,2.12,0
		c3.57-0.01,7.14-0.02,10.71-0.03c0.15,0,0.3,0,0.45,0c0.48,0,0.97,0,1.45,0c0.15,0,0.3,0,0.45,0c6,0.02,12.01,0.05,18.01,0.05
		c7.78,0,15.57-0.03,23.35-0.04c0.15,0,0.3,0,0.45,0c0.17,0,0.34,0,0.51,0c0.15,0,0.29,0,0.44,0c0.17,0,0.34,0,0.51,0
		c0.15,0,0.29,0,0.44,0C863.96,466.13,864.14,466.09,864.32,466.04z"/>
	<path class="st0" d="M812.5,636.66c8.29-16.78,16.52-33.46,24.87-50.37c11.64,23.52,23.15,46.79,34.78,70.29
		c-1.29-0.33-2.21-0.54-3.1-0.8c-0.96-0.28-1.91-0.62-2.86-0.93c-0.91-0.3-1.83-0.6-2.74-0.9c-1.1-0.37-2.19-0.76-3.28-1.12
		c-1.67-0.55-3.35-1.06-5.02-1.63c-1.26-0.43-2.49-0.97-3.76-1.4c-1.49-0.5-3.01-0.94-4.52-1.4c-0.11-0.03-0.25,0.02-0.35-0.03
		c-1.38-0.58-2.74-1.23-4.14-1.76c-1.12-0.42-2.29-0.68-3.43-1.03c-1.38-0.42-2.77-0.84-4.14-1.29c-2.76-0.9-5.52-1.8-8.27-2.73
		c-2.22-0.75-4.43-1.56-6.65-2.33c-2.22-0.77-4.44-1.52-6.66-2.28C813.02,636.89,812.81,636.79,812.5,636.66z"/>
	<path class="st0" d="M861.43,466.18c-7.78,0.02-15.57,0.04-23.35,0.04c-6,0-12.01-0.03-18.01-0.05c0.42-0.06,0.84-0.18,1.25-0.18
		c12.95-0.01,25.91-0.01,38.86,0C860.6,465.99,861.01,466.11,861.43,466.18z"/>
	<path class="st0" d="M817.71,466.18c-3.57,0.01-7.14,0.02-10.71,0.03c0.03-0.03,0.06-0.07,0.09-0.07
		C810.63,466.14,814.17,466.16,817.71,466.18z"/>
	<path class="st0" d="M868.08,466.21c-0.32,0.02-0.64,0.03-0.96,0.05c-0.08,0-0.16,0-0.24,0.01c-0.73-0.08-1.46-0.15-2.19-0.23
		C865.82,466.09,866.95,466.15,868.08,466.21z"/>
	<path class="st0" d="M633.11,788.86c0.15,0.34,0.3,0.68,0.45,1.01c-0.29-0.04-0.59-0.07-0.88-0.11
		C632.82,789.46,632.97,789.16,633.11,788.86z"/>
	<path class="st0" d="M819.61,466.17c-0.48,0-0.97,0-1.45,0C818.65,466.17,819.13,466.17,819.61,466.17z"/>
	<path class="st0" d="M864.32,466.04c-0.18,0.05-0.36,0.09-0.54,0.14C863.96,466.13,864.14,466.09,864.32,466.04z"/>
	<path class="st0" d="M863.33,466.18c-0.17,0-0.34,0-0.51,0C862.99,466.18,863.16,466.18,863.33,466.18z"/>
	<path class="st0" d="M862.38,466.18c-0.17,0-0.34,0-0.51,0C862.04,466.18,862.21,466.18,862.38,466.18z"/>
	<path class="st0" d="M869.71,466.45c-0.07-0.06-0.14-0.12-0.21-0.18C869.57,466.33,869.64,466.39,869.71,466.45z"/>
	<path class="st0" d="M633.11,788.6c0.03,0.06,0.07,0.11,0.08,0.17c0,0.01-0.05,0.04-0.08,0.07
		C633.12,788.76,633.11,788.68,633.11,788.6z"/>
	<path class="st0" d="M866.88,466.26c0.08,0,0.16,0,0.24-0.01C867.04,466.26,866.96,466.26,866.88,466.26z"/>
</g>
</svg>
