<?xml version="1.0" standalone="no"?>
<!DOCTYPE svg PUBLIC "-//W3C//DTD SVG 20010904//EN"
 "http://www.w3.org/TR/2001/REC-SVG-20010904/DTD/svg10.dtd">
<svg version="1.0" xmlns="http://www.w3.org/2000/svg"
 width="1794.000000pt" height="1794.000000pt" viewBox="0 0 1794.000000 1794.000000"
 preserveAspectRatio="xMidYMid meet">
<metadata>
Created by potrace 1.14, written by Peter Selinger 2001-2017
</metadata>
<g transform="translate(0.000000,1794.000000) scale(0.100000,-0.100000)"
fill="#000000" stroke="none">
<path d="M7678 14358 c-25 -3 -62 -14 -81 -23 -35 -16 -117 -91 -117 -107 0
-4 -16 -33 -36 -63 -19 -31 -37 -64 -39 -73 -3 -17 -211 -439 -1245 -2517
-287 -577 -542 -1092 -568 -1144 -41 -86 -46 -101 -45 -165 0 -58 7 -85 35
-151 l35 -80 274 -92 c267 -90 769 -259 1974 -664 325 -109 952 -320 1395
-469 443 -150 819 -276 835 -281 26 -8 38 -25 82 -116 29 -60 120 -247 204
-418 83 -170 184 -377 224 -460 40 -82 132 -271 205 -420 73 -148 158 -324
190 -390 32 -66 92 -189 134 -274 42 -85 74 -156 72 -158 -4 -4 -350 119 -456
162 -45 18 -668 247 -780 287 -47 16 -94 34 -105 39 -11 5 -105 40 -210 78
-104 38 -201 74 -215 80 -14 5 -205 76 -425 157 -220 81 -436 160 -480 176
-44 16 -127 47 -185 68 -119 43 -186 68 -215 80 -11 5 -175 66 -365 135 -190
70 -430 158 -535 197 -104 38 -275 101 -380 140 -104 39 -257 95 -340 125 -82
30 -163 61 -180 68 -16 7 -48 18 -70 25 -22 7 -53 18 -70 25 -16 7 -131 50
-255 95 -124 45 -234 85 -245 90 -11 5 -108 41 -215 80 -230 84 -269 98 -375
138 -44 17 -97 36 -118 42 -57 18 -153 8 -209 -19 -90 -46 -87 -40 -333 -546
-59 -121 -153 -312 -207 -425 -55 -113 -142 -290 -193 -395 -51 -104 -148
-302 -215 -440 -243 -496 -363 -741 -401 -822 -67 -139 -60 -224 27 -363 26
-41 49 -77 51 -79 1 -2 603 -4 1337 -4 l1334 1 54 24 c29 14 68 40 87 59 32
31 141 244 371 724 32 66 120 248 197 405 77 157 161 329 187 383 26 53 51 97
55 97 8 0 1425 -520 1771 -650 41 -15 170 -62 285 -105 116 -42 219 -80 230
-85 11 -4 54 -20 95 -35 41 -14 85 -31 98 -36 12 -5 219 -81 460 -170 240 -88
514 -189 607 -224 94 -35 307 -113 475 -175 168 -61 322 -118 343 -126 20 -8
54 -20 75 -28 20 -8 63 -24 95 -36 l57 -22 1288 0 c1415 -1 1317 -5 1400 59
32 24 146 187 145 208 0 11 -39 91 -498 1030 -65 132 -159 326 -210 430 -51
105 -141 289 -200 410 -59 121 -149 306 -200 410 -51 105 -150 307 -220 450
-70 143 -158 323 -195 400 -37 77 -147 301 -244 499 -97 197 -176 360 -176
361 0 1 -77 159 -171 351 -176 358 -292 597 -454 929 -155 317 -287 588 -410
840 -128 262 -283 579 -435 890 -54 110 -150 308 -215 440 -65 132 -155 317
-200 410 -204 420 -308 627 -340 676 -20 28 -40 59 -44 67 -8 13 -166 15
-1313 16 -718 1 -1325 -2 -1350 -6z m2016 -613 c-12 -27 -50 -106 -84 -175
-34 -69 -97 -197 -140 -285 -43 -88 -149 -306 -237 -485 -88 -179 -186 -380
-219 -447 -32 -68 -61 -123 -64 -123 -4 0 -45 80 -92 178 -97 199 -281 577
-460 942 -66 135 -140 288 -165 340 -25 52 -47 97 -48 100 -2 3 342 5 764 5
l768 0 -23 -50z m-1707 -850 c72 -149 192 -394 266 -545 398 -813 379 -771
365 -805 -6 -16 -50 -106 -96 -200 -46 -93 -117 -237 -157 -320 -40 -82 -124
-256 -188 -385 -63 -129 -169 -347 -237 -485 -67 -137 -123 -252 -125 -253 -4
-4 -564 181 -600 198 -11 5 -36 13 -55 19 -56 15 -899 299 -914 308 -11 6 50
138 286 613 165 333 427 862 583 1175 408 822 579 1167 595 1195 15 28 -18 89
277 -515z m2279 354 c47 -96 112 -228 144 -294 32 -66 124 -255 205 -420 81
-165 173 -354 205 -420 32 -66 122 -250 200 -410 78 -159 179 -366 225 -460
45 -93 140 -287 210 -430 70 -143 158 -323 195 -400 37 -77 127 -261 200 -410
73 -148 169 -346 215 -440 45 -93 140 -287 210 -430 70 -143 165 -336 210
-430 45 -93 112 -230 149 -304 36 -74 64 -136 62 -139 -3 -2 -436 141 -963
317 -527 177 -1012 340 -1078 362 -118 39 -121 41 -142 82 -12 23 -77 155
-144 292 -174 358 -270 555 -409 840 -67 138 -157 322 -200 410 -43 88 -133
273 -200 410 -67 138 -161 328 -207 424 l-84 175 27 55 c28 57 201 412 357
731 47 96 154 317 239 490 85 173 183 375 218 447 35 73 65 131 67 129 2 -1
42 -81 89 -177z m-1221 -2521 c49 -101 151 -311 228 -468 396 -811 495 -1015
493 -1017 -1 -2 -202 65 -447 148 -244 82 -559 189 -699 236 -140 47 -256 86
-256 87 -3 2 41 92 216 451 92 187 211 431 265 543 54 111 102 202 105 202 3
0 46 -82 95 -182z m2030 -2527 c88 -29 169 -56 180 -61 11 -5 238 -82 505
-171 267 -90 667 -224 890 -300 l405 -136 27 -54 c15 -30 94 -189 174 -354 81
-165 196 -401 256 -525 61 -124 144 -295 185 -380 41 -85 77 -157 78 -160 2
-3 -406 -5 -905 -5 l-909 0 -82 170 c-46 94 -148 303 -227 465 -79 162 -180
369 -224 460 -206 423 -275 564 -402 824 -75 153 -136 280 -136 283 0 3 6 3
13 1 6 -3 84 -29 172 -57z m-5896 -297 c69 -26 142 -53 161 -60 19 -7 213 -78
430 -159 217 -80 488 -181 603 -223 114 -42 207 -81 207 -87 0 -6 -39 -90 -86
-185 -122 -248 -257 -524 -259 -530 -1 -3 -68 -140 -149 -305 l-147 -300 -904
0 c-498 0 -905 3 -905 7 0 8 63 140 253 528 52 107 96 200 97 205 1 6 11 22
21 37 10 14 19 29 19 32 0 7 36 82 285 591 70 143 152 313 183 377 32 65 59
118 61 118 2 0 60 -21 130 -46z"/>
</g>
</svg>
